<svg xmlns="http://www.w3.org/2000/svg" width="25" height="25" fill="none" xmlns:v="https://vecta.io/nano"><g clip-path="url(#A)"><path d="M17.344.962a8.45 8.45 0 0 0-3.049.61l-.046.019-.046.024c-.64.326-1.224.734-1.743 1.217C9.668.418 5.223.242 2.182 2.984l-.031.028-.028.029C-.544 5.828-.482 10.119 1.117 13.51l.014.026.014.028c1.883 3.488 5.4 6.451 8.605 8.887l.008.007.007.006c.206.151.561.464.97.771s.872.645 1.548.774l.151.029.153-.012c.71-.061.989-.323 1.455-.617a20.43 20.43 0 0 0 1.513-1.074 43.5 43.5 0 0 0 2.841-2.392c.009-.009.024-.021.033-.029 1.505-1.285 2.992-2.762 4.253-4.499 2.007-2.703 2.977-6.33 1.821-9.903l-.021-.064-.028-.06C23.157 2.581 20.364.931 17.344.962zm.036 2.199a5.33 5.33 0 0 1 5.03 3.107c.875 2.79.119 5.632-1.511 7.82l-.004.006-.004.006c-1.135 1.566-2.51 2.937-3.934 4.15l-.018.017-.018.017c-.642.597-1.728 1.527-2.72 2.29-.496.381-.972.722-1.341.955a2.61 2.61 0 0 1-.38.193c-.114-.062-.258-.15-.408-.263-.302-.227-.624-.517-.974-.775l-.017-.013c-3.11-2.366-6.386-5.238-7.962-8.134-1.279-2.732-1.223-6.003.584-7.924 2.457-2.184 6.107-1.71 7.927.532l.887 1.091.857-1.113c.493-.64 1.082-1.129 1.797-1.501.749-.293 1.494-.444 2.21-.46z" fill="#efa18f"/></g><defs><clipPath id="A"><path fill="#fff" d="M0 0h25v25H0z"/></clipPath></defs></svg>